<?xml version="1.0" encoding="UTF-8" standalone="no"?>
<!DOCTYPE svg PUBLIC "-//W3C//DTD SVG 1.1//EN"
 "http://www.w3.org/Graphics/SVG/1.1/DTD/svg11.dtd">
<!-- Generated by graphviz version 2.44.1 (20200629.0846)
 -->
<!-- Title: g Pages: 1 -->
<svg width="605pt" height="1091pt"
 viewBox="0.00 0.00 605.00 1090.80" xmlns="http://www.w3.org/2000/svg" xmlns:xlink="http://www.w3.org/1999/xlink">
<g id="graph0" class="graph" transform="scale(1 1) rotate(0) translate(4 1086.8)">
<title>g</title>
<polygon fill="white" stroke="transparent" points="-4,4 -4,-1086.8 601,-1086.8 601,4 -4,4"/>
<g id="clust1" class="cluster">
<title>cluster_1322970774</title>
<polygon fill="#ececec" stroke="black" points="8,-8 8,-1074.8 589,-1074.8 589,-8 8,-8"/>
<text text-anchor="middle" x="39.71" y="-1058.2" font-family="Times New Roman,serif" font-size="14.00">example</text>
</g>
<g id="clust2" class="cluster">
<title>cluster_129515980</title>
<polygon fill="#d8d8d8" stroke="black" points="16,-16 16,-1042 581,-1042 581,-16 16,-16"/>
<text text-anchor="middle" x="38.77" y="-1025.4" font-family="Times New Roman,serif" font-size="14.00">task5</text>
</g>
<!-- Aggregate537999329 -->
<g id="node1" class="node">
<title>Aggregate537999329</title>
<polygon fill="#f1e5fd" stroke="transparent" points="572.5,-313.6 435.5,-313.6 435.5,-263.6 572.5,-263.6 572.5,-313.6"/>
<text text-anchor="start" x="441" y="-296" font-family="Times New Roman,serif" font-size="14.00">(I)Aggregate</text>
<text text-anchor="start" x="440.7" y="-272" font-family="Times New Roman,serif" font-size="14.00">+ getIterator(): Iterator</text>
<polygon fill="black" stroke="black" points="436,-288.6 436,-288.6 573,-288.6 573,-288.6 436,-288.6"/>
<polygon fill="none" stroke="black" points="435.5,-263.6 435.5,-313.6 572.5,-313.6 572.5,-263.6 435.5,-263.6"/>
</g>
<!-- ConcreteAggregate537999329 -->
<g id="node3" class="node">
<title>ConcreteAggregate537999329</title>
<polygon fill="#ffffff" stroke="transparent" points="445.5,-98 298.5,-98 298.5,-24 445.5,-24 445.5,-98"/>
<text text-anchor="start" x="304" y="-80.4" font-family="Times New Roman,serif" font-size="14.00">(C)ConcreteAggregate</text>
<text text-anchor="start" x="304" y="-56.4" font-family="Times New Roman,serif" font-size="14.00">&#45; &#160;&#160;bi: Image [0..1]</text>
<text text-anchor="start" x="303.88" y="-32.4" font-family="Times New Roman,serif" font-size="14.00">&#45; &#160;&#160;filetopic: String [0..1]</text>
<polygon fill="black" stroke="black" points="299,-73 299,-73 446,-73 446,-73 299,-73"/>
<polygon fill="none" stroke="black" points="298.5,-24 298.5,-98 445.5,-98 445.5,-24 298.5,-24"/>
</g>
<!-- Aggregate537999329&#45;&gt;ConcreteAggregate537999329 -->
<g id="edge1" class="edge">
<title>Aggregate537999329&#45;&gt;ConcreteAggregate537999329</title>
<path fill="none" stroke="black" d="M484.8,-254.79C460.42,-213.11 418.47,-141.42 393.18,-98.19"/>
<polygon fill="none" stroke="black" points="481.8,-256.59 489.87,-263.46 487.84,-253.06 481.8,-256.59"/>
</g>
<!-- BuilderTextProperty537999329 -->
<g id="node2" class="node">
<title>BuilderTextProperty537999329</title>
<polygon fill="#ffffff" stroke="transparent" points="336,-409.6 24,-409.6 24,-167.6 336,-167.6 336,-409.6"/>
<text text-anchor="start" x="29" y="-392" font-family="Times New Roman,serif" font-size="14.00">(C)BuilderTextProperty</text>
<text text-anchor="start" x="29" y="-368" font-family="Times New Roman,serif" font-size="14.00">+ &#160;&#160;conaggr: ConcreteAggregate [0..1]</text>
<text text-anchor="start" x="29" y="-344" font-family="Times New Roman,serif" font-size="14.00"># &#160;&#160;indicator: Indicator [0..1]</text>
<text text-anchor="start" x="29" y="-320" font-family="Times New Roman,serif" font-size="14.00">+ &#160;&#160;iter: Iterator [0..1]</text>
<text text-anchor="start" x="29" y="-296" font-family="Times New Roman,serif" font-size="14.00"># &#160;&#160;text: Label [0..1]</text>
<text text-anchor="start" x="29" y="-272" font-family="Times New Roman,serif" font-size="14.00">+ &#160;&#160;time: Timeline [0..1]</text>
<text text-anchor="start" x="29" y="-248" font-family="Times New Roman,serif" font-size="14.00">+ ImageScroll(image: Image)</text>
<text text-anchor="start" x="29" y="-224" font-family="Times New Roman,serif" font-size="14.00">+ TextAnimation(button: boolean)</text>
<text text-anchor="start" x="28.68" y="-200" font-family="Times New Roman,serif" font-size="14.00">+ addText(text: String, textSize: int, textColor: Color)</text>
<text text-anchor="start" x="29" y="-176" font-family="Times New Roman,serif" font-size="14.00">+ build(): Indicator</text>
<polygon fill="black" stroke="black" points="24,-384.6 24,-384.6 336,-384.6 336,-384.6 24,-384.6"/>
<polygon fill="black" stroke="black" points="24,-264.6 24,-264.6 336,-264.6 336,-264.6 24,-264.6"/>
<polygon fill="none" stroke="black" points="24,-167.6 24,-409.6 336,-409.6 336,-167.6 24,-167.6"/>
</g>
<!-- BuilderTextProperty537999329&#45;&gt;ConcreteAggregate537999329 -->
<g id="edge2" class="edge">
<title>BuilderTextProperty537999329&#45;&gt;ConcreteAggregate537999329</title>
<path fill="none" stroke="black" d="M279.33,-167.49C303.18,-138.65 321.91,-116 321.91,-116 321.91,-116 325.95,-111.64 331.74,-105.41"/>
<polygon fill="black" stroke="black" points="334.35,-107.73 338.59,-98.02 329.22,-102.97 334.35,-107.73"/>
<text text-anchor="middle" x="343.54" y="-137" font-family="Times New Roman,serif" font-size="14.00">conaggr</text>
<text text-anchor="middle" x="343.54" y="-120.2" font-family="Times New Roman,serif" font-size="14.00">[0..1]</text>
</g>
<!-- HelloController537999329 -->
<g id="node4" class="node">
<title>HelloController537999329</title>
<polygon fill="#ffffff" stroke="transparent" points="471,-1009.2 155,-1009.2 155,-479.2 471,-479.2 471,-1009.2"/>
<text text-anchor="start" x="160" y="-991.6" font-family="Times New Roman,serif" font-size="14.00">(C)HelloController</text>
<text text-anchor="start" x="160" y="-967.6" font-family="Times New Roman,serif" font-size="14.00"># &#160;&#160;auto: boolean [1]</text>
<text text-anchor="start" x="160" y="-943.6" font-family="Times New Roman,serif" font-size="14.00"># &#160;&#160;builder: BuilderTextProperty [0..1]</text>
<text text-anchor="start" x="160" y="-919.6" font-family="Times New Roman,serif" font-size="14.00"># &#160;&#160;color: ColorPicker [0..1]</text>
<text text-anchor="start" x="160" y="-895.6" font-family="Times New Roman,serif" font-size="14.00">+ &#160;&#160;conaggr: ConcreteAggregate [0..1]</text>
<text text-anchor="start" x="160" y="-871.6" font-family="Times New Roman,serif" font-size="14.00"># &#160;&#160;director: Director [0..1]</text>
<text text-anchor="start" x="160" y="-847.6" font-family="Times New Roman,serif" font-size="14.00"># &#160;&#160;indicator: Indicator [0..1]</text>
<text text-anchor="start" x="160" y="-823.6" font-family="Times New Roman,serif" font-size="14.00"># &#160;&#160;initialValue: int [1]</text>
<text text-anchor="start" x="160" y="-799.6" font-family="Times New Roman,serif" font-size="14.00">+ &#160;&#160;iter: Iterator [0..1]</text>
<text text-anchor="start" x="160" y="-775.6" font-family="Times New Roman,serif" font-size="14.00"># &#160;&#160;label: Label [0..1]</text>
<text text-anchor="start" x="160" y="-751.6" font-family="Times New Roman,serif" font-size="14.00"># &#160;&#160;panee: BorderPane [0..1]</text>
<text text-anchor="start" x="160" y="-727.6" font-family="Times New Roman,serif" font-size="14.00"># &#160;&#160;spinner: Spinner&lt;Integer&gt; [0..1]</text>
<text text-anchor="start" x="160" y="-703.6" font-family="Times New Roman,serif" font-size="14.00"># &#160;&#160;textField: TextField [0..1]</text>
<text text-anchor="start" x="160" y="-679.6" font-family="Times New Roman,serif" font-size="14.00">+ &#160;&#160;time: Timeline [0..1]</text>
<text text-anchor="start" x="159.52" y="-655.6" font-family="Times New Roman,serif" font-size="14.00"># &#160;&#160;valueFactory: SpinnerValueFactory&lt;Integer&gt; [0..1]</text>
<text text-anchor="start" x="160" y="-631.6" font-family="Times New Roman,serif" font-size="14.00"># &#160;&#160;vbox: VBox [0..1]</text>
<text text-anchor="start" x="160" y="-607.6" font-family="Times New Roman,serif" font-size="14.00">+ initialize()</text>
<text text-anchor="start" x="160" y="-583.6" font-family="Times New Roman,serif" font-size="14.00">+ onBack()</text>
<text text-anchor="start" x="160" y="-559.6" font-family="Times New Roman,serif" font-size="14.00">+ onClear()</text>
<text text-anchor="start" x="160" y="-535.6" font-family="Times New Roman,serif" font-size="14.00">+ onForward()</text>
<text text-anchor="start" x="160" y="-511.6" font-family="Times New Roman,serif" font-size="14.00">+ onPause()</text>
<text text-anchor="start" x="160" y="-487.6" font-family="Times New Roman,serif" font-size="14.00">+ onPlay()</text>
<polygon fill="black" stroke="black" points="155,-984.2 155,-984.2 471,-984.2 471,-984.2 155,-984.2"/>
<polygon fill="black" stroke="black" points="155,-624.2 155,-624.2 471,-624.2 471,-624.2 155,-624.2"/>
<polygon fill="none" stroke="black" points="155,-479.2 155,-1009.2 471,-1009.2 471,-479.2 155,-479.2"/>
</g>
<!-- HelloController537999329&#45;&gt;BuilderTextProperty537999329 -->
<g id="edge3" class="edge">
<title>HelloController537999329&#45;&gt;BuilderTextProperty537999329</title>
<path fill="none" stroke="black" d="M235.54,-479.01C229.54,-458.54 223.66,-438.49 218.1,-419.55"/>
<polygon fill="black" stroke="black" points="221.4,-418.36 215.23,-409.74 214.68,-420.33 221.4,-418.36"/>
<text text-anchor="middle" x="245.83" y="-448.6" font-family="Times New Roman,serif" font-size="14.00">builder</text>
<text text-anchor="middle" x="245.83" y="-431.8" font-family="Times New Roman,serif" font-size="14.00">[0..1]</text>
</g>
<!-- HelloController537999329&#45;&gt;ConcreteAggregate537999329 -->
<g id="edge4" class="edge">
<title>HelloController537999329&#45;&gt;ConcreteAggregate537999329</title>
<path fill="none" stroke="black" d="M338.33,-479.13C342.24,-438.42 345,-409.6 345,-409.6 345,-409.6 367,-149.6 367,-149.6 367,-149.6 368.16,-129.23 369.37,-108.13"/>
<polygon fill="black" stroke="black" points="372.86,-108.32 369.94,-98.14 365.87,-107.92 372.86,-108.32"/>
<text text-anchor="middle" x="387.54" y="-292.8" font-family="Times New Roman,serif" font-size="14.00">conaggr</text>
<text text-anchor="middle" x="387.54" y="-276" font-family="Times New Roman,serif" font-size="14.00">[0..1]</text>
</g>
</g>
</svg>
